<?xml version="1.0" encoding="UTF-8"?>
<svg version="1.1" viewBox="0 0 2048 1518" width="580" height="430" xmlns="http://www.w3.org/2000/svg">
<path transform="translate(700,82)" d="m0 0h37l15 2 12 4 13 7 11 9 7 7 8 13 8 18 5 15 5 22 2 21v21l-1 80-2 6-4 1h-9l-10-4-1-1-2-58-1-3h-15l-64 4-48 4-81 5-127 10-138 10-62 5-71 5-7 1-3 61-2 105-2 90-1 91-3 138-1 55-2 62-2 92-1 34-3 200-1 53v81l13-1 31-4 67-10 74-12 42-6 36-6 50-8 45-7 65-9 36-6 60-9 43-7 28-4 20-4 10-5 1-2 1-31 2-3 8 2 7 4 4 5 3 9 2 15 1 18v25l-2 17-5 19-8 22-8 16-6 10-9 12-12 13-7 7-14 10-14 7-20 6-36 7-69 11-102 18-63 9-65 10-108 20-27 4h-30l-14-4-14-8-11-9-7-7-10-14-7-15-4-13-3-19-2-24v-46l2-59 1-42 1-123 4-191 2-91 1-69 3-145 1-122 3-170 2-56 1-46 3-21 5-17 7-16 9-15 9-12 11-12 11-9 18-12 16-7 15-4 27-4 25-2 87-5 111-8 61-4 97-5zm-221 1244-15 6-12 6-9 7-8 9-5 12-2 9v16l4 15 5 9 7 8 10 6 9 2h13l12-3 11-6 12-11 7-9 5-10 2-6v-22l-4-13-6-10-8-8-14-7z" fill="#6DCA16"/>
<path transform="translate(1595,315)" d="m0 0h101l1 13v52l-1 118-3 2h-87v267l-1 67-2 31-4 19-10 25-11 19-9 12-9 11-12 12-14 11-15 10-23 12-16 6-10 3h-13l-9-4-9-7-10-9-5-8-3-12v-31l-1-20 3-4 7-2 20-2 16-8 13-9 12-11 9-11 4-7 3-10-3-7-2-2-69-1-19-1-31-4-21-7-21-10-12-8-12-9-14-12-9-10-13-18-9-12-10-14-2-1v107h-18l-19-1-61-1-2-5v-169l-2-18-4-14-7-13-9-11-9-9-13-8-12-5-17-3-14 1-16 4-14 7-9 7-8 7-9 13-5 10-4 12-2 14v10l2 13 4 12 6 11 11 12 9 8 16 8 15 4 15 3 6 3 1 13v82l-1 2h-15l-28-5-28-8-16-6-14-8-13-9-14-12-16-16-12-17-9-15-9-20-7-22-3-15-1-9v-29l4-23 6-20 6-15 8-16 10-16 11-13 20-20 17-13 13-8 16-8 18-6 20-4 17-2h25l19 2 19 4 15 6 16 8 14 8 16 12 15 14 7 8 8 10 9 12 9 10 6 7 2 1-1-15v-87h100l1 1 1 177 1 17 4 14 8 14 8 10 12 9 18 8 14 3 11 1 31 1h42l3-1 1-9 1-198v-39l1-7 4-1h27l55 1 1-166z" fill="#FEFEFE"/>
<path transform="translate(582,314)" d="m0 0h130l30 1 24 3 19 5 20 8 13 7 10 7 12 9 17 16 12 13 11 15 8 14 9 19 5 15 4 19 1 10v30l-2 18-6 25-8 20-7 14-8 12-9 11-11 12-13 13-18 13-6 4 1 9 13 24 23 46 11 23 13 26 10 19 9 17 9 16 5 13-1 1-97-1-5-3-6-9-10-18-11-23-10-19-13-28-19-39-9-19-8-12-2-2-70 2 1 63v102l-2 4-2 1h-41l-40 2h-15l-1-5-1-473v-47l2-2zm71 102-1 14v114l1 26 1 1h49l27-1 18-2 16-6 12-7 12-11 11-15 5-11 4-16 1-12-3-15-5-14-8-15-9-11-12-9-12-6-10-3-7-1z" fill="#FEFEFE"/>
<path transform="translate(1717,918)" d="m0 0h19l33 1 4 2v57h18l40 1 3 1v16l-2 38-3 7-11 3h-19l-19 1-6 4-1 3v54l3 13 6 12 9 10 11 9 9 6 14 6 9 3v2l4-3 6 1 1-2 17-4 12-6 5-4 7-9 1-2v-7l-6-3-9-1-24-1-4-3-3-11v-16l4-22 7-20 9-16 10-14 12-13 10-9 10-7 15-7 21-6 5-1h13l2 3 2 18v23l-3 8-4 6-10 6-23 13-8 6-5 6v7l2 3 19 4 23 3 7 2 1 3v25l-4 17-6 16-8 16-8 11-11 12-9 8-16 11-9 5-14 6-14 3-8 1h-9l-10-2-1 2h-10l-18-3-16-6-16-8-12-8-13-11-9-11-8-14-11-28-3-11-2-13-2-4-6-1-35-1h-134l-5 2-1 1v7l7 14 10 13 7 7 9 5 9 3 21 2 105 1 1 1 3 35v24l-4 4-4 2h-99l-19-2-19-4-19-8-17-11-10-9-8-8-12-17-15-23-4-4-2 2-1 4v84l-4 20-5 16-6 14-10 15-9 10-9 9-14 10-17 9-18 6-12 3h-10l-4-6-1-4-1-39 2-5 8-5 23-11 9-7 8-8 11-17 2-5-1-7-5-2h-49l-25-2-17-4-18-8-13-8-10-8-7-6-8-10-9-15-9-19-5-15-5-23v-17l3-16 9-22 9-15 10-13 12-13 10-9 10-7 12-7 15-5 9-2 10-1h18l21 3 16 5 14 7 15 13 8 8 7 8 13 17 10 17 6 11v2l4-1 8-16 12-19 8-11 17-17 20-14 12-6 13-5 9-2h35l16 3 21 8 12 8 12 11 12 12 13 17 10 14 8 9 1-5 1-33v-62l-1-36 2-7zm-378 125-13 4-10 6-10 10-6 9-8 16-2 8v11l2 13 8 16 9 10 11 7 13 4 14 2h43l13-1 6-3 3-3 1-5 1-20v-29l-3-12-9-16-9-11-12-9-12-5-10-2zm245 1-13 5-7 6-1 6 4 2 12 1 38 1 7-2-1-6-6-8-14-5z" fill="#6DCA16"/>
<path transform="translate(1166,862)" d="m0 0h37l17 1 4 2v179l-2 71-2 12-4 15-8 17-11 16-12 14-11 10-17 12-16 8-13 4-13 2h-19l-19-3-21-8-16-9-10-8-12-12-13-18-8-13-8-14-3-6-2-1-2 30-2 39-2 17-1 4-2 1-27 1h-21l-3-5v-107l-1-16-4-14-7-14-7-8v-2l-4-2-7-6-12-6-9-2h-21l-11 3-10 5-12 11-8 10-7 12-3 11-1 13 3 12 6 9 8 10 13 10 8 4 17 6 5 3 1 2v38l-3 16-3 6-7 1-21-6-16-8-13-7-15-11-9-8-7-10-6-10-8-16-5-13-5-20-1-6v-23l4-17 7-17 10-17 11-16 14-14 14-10 16-8 15-5 10-2 12-1h12l20 2 15 4 13 6 12 7 14 11 7 7 11 14 11 18 12 24h2l10-18 15-24 9-12 9-10 10-8 13-8 12-5 21-5 9-1 43-1 26-1 2-1 1-3 1-112zm-53 180-22 2-13 4-8 4-11 9-11 13-7 14-1 5v13l2 9 7 13 8 10 11 11 11 7 14 5 5 1h17l13-4 10-7 10-9 7-8 8-16 3-10v-56l-2-5-4-3-3-1-12-1z" fill="#6DCA16"/>
<path transform="translate(609,861)" d="m0 0h21l16 3 16 6 15 8 13 11 12 12 11 15 13 23 7 19 2 11v6l-5 5-25 3h-21l-6-5-8-16-9-16-11-12-9-6-10-3-7-1h-24l-14 5-11 8-9 9-8 13-3 10-1 11v122l2 13 3 10 6 11 9 10 11 7 13 5 12 2h9l17-4 11-6 10-8 7-7 9-14 3-6-1-6-4-4-7-1-47-1-2-4v-53l1-7 7-1h99l7 1 4 9v44l-6 43-7 21-6 10-7 10-9 10-7 8-16 13-14 8-12 5-14 3-9 1h-17l-21-3-13-4-19-8-13-9-13-11-11-15-10-18-8-24-3-14-2-19-1-16-1-30v-66l2-23 5-21 8-16 8-12 9-11 13-13 14-11 16-9 18-6 13-3z" fill="#6DCA16"/>
<path transform="translate(1876,485)" d="m0 0h8l2 4v20l-1 71-5 3-30 8-14 7-12 9-15 14-5 7v5l4 1 13 1 56 1 8 2 1 2v30l-2 20-6 25-10 25-8 15-7 10-11 14-13 13-17 13-17 11-19 9-18 6-30 7-18 3h-7l-3-7-1-5v-76l1-9 3-3 41-11 10-4 7-5 3-5v-13h-12l-27 3-21 1-5-5v-43l4-31 4-18 9-21 7-13 10-15 9-12 11-12 7-7 17-13 18-11 17-8 18-6 28-5z" fill="#FEFEFE"/>
<path transform="translate(478,1345)" d="m0 0h9l8 6 6 7 4 10v16l-5 12-4 5-11 8-10 3h-7l-7-3-8-7-4-8-1-5v-9l2-8 4-8 8-9 10-7z" fill="#6DCA16"/>
<path transform="translate(326,1324)" d="m0 0 2 1-9 3-10 2-7 2-16 4-27 5-46 6-16 2-25 2h-6l-2-3 33-4 73-11z" fill="#FEFEFE"/>
</svg>
